<?xml version='1.0' standalone='no'?>
<!DOCTYPE svg PUBLIC '-//W3C//DTD SVG 20010904//EN' 'http://www.w3.org/TR/2001/REC-SVG-20010904/DTD/svg10.dtd'>
<svg version="1.0" viewBox="0 0 920.000000 600.000000" preserveAspectRatio="xMidYMid meet" width="920.000000pt" height="600.000000pt" xmlns="http://www.w3.org/2000/svg">
 <g stroke-opacity="1" fill-opacity="1" transform="translate(0.000000,600.000000) scale(0.100000,-0.100000)" fill="#9c9c9c" stroke="#9c9c9c">
  <path d="M4335 5689 c-226 -22 -510 -90 -725 -176 -1033 -409 -1710 -1404&#xa;-1710 -2513 0 -911 449 -1744 1215 -2255 574 -383 1289 -527 1981 -400 906&#xa;167 1675 801 2017 1665 152 381 215 825 176 1240 -119 1291 -1148 2320 -2439&#xa;2439 -132 12 -383 12 -515 0z m1817 -3371 l-232 -233 -657 658 -658 657 -662&#xa;-662 -663 -663 -232 233 -233 232 895 895 895 895 890 -890 890 -890 -233&#xa;-232z"/>
 </g>
</svg>
